<mxfile host="Electron" agent="Mozilla/5.0 (Windows NT 10.0; Win64; x64) AppleWebKit/537.36 (KHTML, like Gecko) draw.io/24.7.8 Chrome/128.0.6613.36 Electron/32.0.1 Safari/537.36" version="24.7.8">
  <diagram id="C5RBs43oDa-KdzZeNtuy" name="Page-1">
    <mxGraphModel dx="1814" dy="577" grid="1" gridSize="10" guides="1" tooltips="1" connect="1" arrows="1" fold="1" page="1" pageScale="1" pageWidth="827" pageHeight="1169" math="0" shadow="0">
      <root>
        <mxCell id="WIyWlLk6GJQsqaUBKTNV-0" />
        <mxCell id="WIyWlLk6GJQsqaUBKTNV-1" parent="WIyWlLk6GJQsqaUBKTNV-0" />
        <mxCell id="2dFmBHsL3zyiolPfMNF0-12" value="" style="edgeStyle=orthogonalEdgeStyle;rounded=0;orthogonalLoop=1;jettySize=auto;html=1;" parent="WIyWlLk6GJQsqaUBKTNV-1" source="2dFmBHsL3zyiolPfMNF0-0" target="2dFmBHsL3zyiolPfMNF0-11" edge="1">
          <mxGeometry relative="1" as="geometry" />
        </mxCell>
        <mxCell id="2dFmBHsL3zyiolPfMNF0-0" value="START" style="ellipse;whiteSpace=wrap;html=1;" parent="WIyWlLk6GJQsqaUBKTNV-1" vertex="1">
          <mxGeometry x="370" y="20" width="120" height="80" as="geometry" />
        </mxCell>
        <mxCell id="2dFmBHsL3zyiolPfMNF0-18" value="" style="edgeStyle=orthogonalEdgeStyle;rounded=0;orthogonalLoop=1;jettySize=auto;html=1;" parent="WIyWlLk6GJQsqaUBKTNV-1" source="2dFmBHsL3zyiolPfMNF0-11" edge="1">
          <mxGeometry relative="1" as="geometry">
            <mxPoint x="430" y="320" as="targetPoint" />
          </mxGeometry>
        </mxCell>
        <mxCell id="2dFmBHsL3zyiolPfMNF0-19" value="" style="edgeStyle=orthogonalEdgeStyle;rounded=0;orthogonalLoop=1;jettySize=auto;html=1;" parent="WIyWlLk6GJQsqaUBKTNV-1" source="2dFmBHsL3zyiolPfMNF0-11" edge="1">
          <mxGeometry relative="1" as="geometry">
            <mxPoint x="430" y="320" as="targetPoint" />
          </mxGeometry>
        </mxCell>
        <mxCell id="2dFmBHsL3zyiolPfMNF0-23" style="edgeStyle=orthogonalEdgeStyle;rounded=0;orthogonalLoop=1;jettySize=auto;html=1;entryX=0.5;entryY=0;entryDx=0;entryDy=0;" parent="WIyWlLk6GJQsqaUBKTNV-1" source="2dFmBHsL3zyiolPfMNF0-11" target="2dFmBHsL3zyiolPfMNF0-21" edge="1">
          <mxGeometry relative="1" as="geometry" />
        </mxCell>
        <mxCell id="2dFmBHsL3zyiolPfMNF0-26" style="edgeStyle=orthogonalEdgeStyle;rounded=0;orthogonalLoop=1;jettySize=auto;html=1;entryX=0.5;entryY=0;entryDx=0;entryDy=0;" parent="WIyWlLk6GJQsqaUBKTNV-1" source="2dFmBHsL3zyiolPfMNF0-11" target="2dFmBHsL3zyiolPfMNF0-25" edge="1">
          <mxGeometry relative="1" as="geometry" />
        </mxCell>
        <mxCell id="2dFmBHsL3zyiolPfMNF0-11" value="pilih option" style="rounded=1;whiteSpace=wrap;html=1;" parent="WIyWlLk6GJQsqaUBKTNV-1" vertex="1">
          <mxGeometry x="370" y="190" width="120" height="60" as="geometry" />
        </mxCell>
        <mxCell id="2dFmBHsL3zyiolPfMNF0-32" style="edgeStyle=orthogonalEdgeStyle;rounded=0;orthogonalLoop=1;jettySize=auto;html=1;" parent="WIyWlLk6GJQsqaUBKTNV-1" source="2dFmBHsL3zyiolPfMNF0-20" target="2dFmBHsL3zyiolPfMNF0-25" edge="1">
          <mxGeometry relative="1" as="geometry" />
        </mxCell>
        <mxCell id="2dFmBHsL3zyiolPfMNF0-35" value="" style="edgeStyle=orthogonalEdgeStyle;rounded=0;orthogonalLoop=1;jettySize=auto;html=1;" parent="WIyWlLk6GJQsqaUBKTNV-1" source="2dFmBHsL3zyiolPfMNF0-20" target="2dFmBHsL3zyiolPfMNF0-34" edge="1">
          <mxGeometry relative="1" as="geometry" />
        </mxCell>
        <mxCell id="2dFmBHsL3zyiolPfMNF0-20" value="&#xa;&lt;span style=&quot;color: rgb(240, 240, 240); font-family: Helvetica; font-size: 12px; font-style: normal; font-variant-ligatures: normal; font-variant-caps: normal; font-weight: 400; letter-spacing: normal; orphans: 2; text-align: center; text-indent: 0px; text-transform: none; widows: 2; word-spacing: 0px; -webkit-text-stroke-width: 0px; white-space: normal; background-color: rgb(27, 29, 30); text-decoration-thickness: initial; text-decoration-style: initial; text-decoration-color: initial; display: inline !important; float: none;&quot;&gt;register&lt;/span&gt;&lt;div style=&quot;forced-color-adjust: none; border-color: rgb(0, 0, 0); color: rgb(240, 240, 240); font-family: Helvetica; font-size: 12px; font-style: normal; font-variant-ligatures: normal; font-variant-caps: normal; font-weight: 400; letter-spacing: normal; orphans: 2; text-align: center; text-indent: 0px; text-transform: none; widows: 2; word-spacing: 0px; -webkit-text-stroke-width: 0px; white-space: normal; background-color: rgb(27, 29, 30); text-decoration-thickness: initial; text-decoration-style: initial; text-decoration-color: initial;&quot;&gt;akun baru&lt;/div&gt;&#xa;&#xa;" style="rhombus;whiteSpace=wrap;html=1;" parent="WIyWlLk6GJQsqaUBKTNV-1" vertex="1">
          <mxGeometry x="390" y="320" width="80" height="80" as="geometry" />
        </mxCell>
        <mxCell id="2dFmBHsL3zyiolPfMNF0-29" style="edgeStyle=orthogonalEdgeStyle;rounded=0;orthogonalLoop=1;jettySize=auto;html=1;" parent="WIyWlLk6GJQsqaUBKTNV-1" source="2dFmBHsL3zyiolPfMNF0-21" target="2dFmBHsL3zyiolPfMNF0-20" edge="1">
          <mxGeometry relative="1" as="geometry" />
        </mxCell>
        <mxCell id="2dFmBHsL3zyiolPfMNF0-43" value="" style="edgeStyle=orthogonalEdgeStyle;rounded=0;orthogonalLoop=1;jettySize=auto;html=1;" parent="WIyWlLk6GJQsqaUBKTNV-1" source="2dFmBHsL3zyiolPfMNF0-21" target="2dFmBHsL3zyiolPfMNF0-42" edge="1">
          <mxGeometry relative="1" as="geometry" />
        </mxCell>
        <mxCell id="2dFmBHsL3zyiolPfMNF0-21" value="login" style="rhombus;whiteSpace=wrap;html=1;" parent="WIyWlLk6GJQsqaUBKTNV-1" vertex="1">
          <mxGeometry x="-80" y="320" width="80" height="80" as="geometry" />
        </mxCell>
        <mxCell id="2dFmBHsL3zyiolPfMNF0-28" style="edgeStyle=orthogonalEdgeStyle;rounded=0;orthogonalLoop=1;jettySize=auto;html=1;entryX=1;entryY=0.5;entryDx=0;entryDy=0;" parent="WIyWlLk6GJQsqaUBKTNV-1" source="2dFmBHsL3zyiolPfMNF0-25" target="2dFmBHsL3zyiolPfMNF0-11" edge="1">
          <mxGeometry relative="1" as="geometry">
            <Array as="points">
              <mxPoint x="590" y="360" />
              <mxPoint x="590" y="220" />
            </Array>
          </mxGeometry>
        </mxCell>
        <mxCell id="2dFmBHsL3zyiolPfMNF0-25" value="exit" style="rhombus;whiteSpace=wrap;html=1;" parent="WIyWlLk6GJQsqaUBKTNV-1" vertex="1">
          <mxGeometry x="490" y="320" width="80" height="80" as="geometry" />
        </mxCell>
        <mxCell id="2dFmBHsL3zyiolPfMNF0-37" value="" style="edgeStyle=orthogonalEdgeStyle;rounded=0;orthogonalLoop=1;jettySize=auto;html=1;" parent="WIyWlLk6GJQsqaUBKTNV-1" source="2dFmBHsL3zyiolPfMNF0-34" target="2dFmBHsL3zyiolPfMNF0-36" edge="1">
          <mxGeometry relative="1" as="geometry" />
        </mxCell>
        <mxCell id="2dFmBHsL3zyiolPfMNF0-34" value="input buat_username" style="shape=parallelogram;perimeter=parallelogramPerimeter;whiteSpace=wrap;html=1;fixedSize=1;" parent="WIyWlLk6GJQsqaUBKTNV-1" vertex="1">
          <mxGeometry x="355" y="490" width="150" height="60" as="geometry" />
        </mxCell>
        <mxCell id="2dFmBHsL3zyiolPfMNF0-39" value="" style="edgeStyle=orthogonalEdgeStyle;rounded=0;orthogonalLoop=1;jettySize=auto;html=1;" parent="WIyWlLk6GJQsqaUBKTNV-1" source="2dFmBHsL3zyiolPfMNF0-36" target="2dFmBHsL3zyiolPfMNF0-38" edge="1">
          <mxGeometry relative="1" as="geometry" />
        </mxCell>
        <mxCell id="2dFmBHsL3zyiolPfMNF0-36" value="input buat_password" style="shape=parallelogram;perimeter=parallelogramPerimeter;whiteSpace=wrap;html=1;fixedSize=1;" parent="WIyWlLk6GJQsqaUBKTNV-1" vertex="1">
          <mxGeometry x="360" y="590" width="140" height="60" as="geometry" />
        </mxCell>
        <mxCell id="2dFmBHsL3zyiolPfMNF0-40" style="edgeStyle=orthogonalEdgeStyle;rounded=0;orthogonalLoop=1;jettySize=auto;html=1;entryX=0;entryY=0.5;entryDx=0;entryDy=0;" parent="WIyWlLk6GJQsqaUBKTNV-1" source="2dFmBHsL3zyiolPfMNF0-38" edge="1">
          <mxGeometry relative="1" as="geometry">
            <mxPoint x="380.01" y="249.98" as="targetPoint" />
            <mxPoint x="390.0037106918239" y="759.9988679245284" as="sourcePoint" />
            <Array as="points">
              <mxPoint x="280" y="730" />
              <mxPoint x="280" y="320" />
              <mxPoint x="380" y="320" />
            </Array>
          </mxGeometry>
        </mxCell>
        <mxCell id="2dFmBHsL3zyiolPfMNF0-41" value="kembali" style="edgeLabel;html=1;align=center;verticalAlign=middle;resizable=0;points=[];" parent="2dFmBHsL3zyiolPfMNF0-40" vertex="1" connectable="0">
          <mxGeometry x="0.575" y="-1" relative="1" as="geometry">
            <mxPoint x="1" as="offset" />
          </mxGeometry>
        </mxCell>
        <mxCell id="2dFmBHsL3zyiolPfMNF0-38" value="input role&lt;div&gt;(admin/reguler)&lt;/div&gt;" style="shape=parallelogram;perimeter=parallelogramPerimeter;whiteSpace=wrap;html=1;fixedSize=1;" parent="WIyWlLk6GJQsqaUBKTNV-1" vertex="1">
          <mxGeometry x="370" y="700" width="120" height="60" as="geometry" />
        </mxCell>
        <mxCell id="2dFmBHsL3zyiolPfMNF0-45" value="" style="edgeStyle=orthogonalEdgeStyle;rounded=0;orthogonalLoop=1;jettySize=auto;html=1;" parent="WIyWlLk6GJQsqaUBKTNV-1" source="2dFmBHsL3zyiolPfMNF0-42" target="2dFmBHsL3zyiolPfMNF0-44" edge="1">
          <mxGeometry relative="1" as="geometry" />
        </mxCell>
        <mxCell id="2dFmBHsL3zyiolPfMNF0-42" value="input username" style="shape=parallelogram;perimeter=parallelogramPerimeter;whiteSpace=wrap;html=1;fixedSize=1;" parent="WIyWlLk6GJQsqaUBKTNV-1" vertex="1">
          <mxGeometry x="-100" y="490" width="120" height="60" as="geometry" />
        </mxCell>
        <mxCell id="2dFmBHsL3zyiolPfMNF0-47" value="" style="edgeStyle=orthogonalEdgeStyle;rounded=0;orthogonalLoop=1;jettySize=auto;html=1;" parent="WIyWlLk6GJQsqaUBKTNV-1" source="2dFmBHsL3zyiolPfMNF0-44" target="2dFmBHsL3zyiolPfMNF0-46" edge="1">
          <mxGeometry relative="1" as="geometry" />
        </mxCell>
        <mxCell id="2dFmBHsL3zyiolPfMNF0-44" value="input password" style="shape=parallelogram;perimeter=parallelogramPerimeter;whiteSpace=wrap;html=1;fixedSize=1;" parent="WIyWlLk6GJQsqaUBKTNV-1" vertex="1">
          <mxGeometry x="-100" y="580" width="120" height="60" as="geometry" />
        </mxCell>
        <mxCell id="2dFmBHsL3zyiolPfMNF0-48" style="edgeStyle=orthogonalEdgeStyle;rounded=0;orthogonalLoop=1;jettySize=auto;html=1;entryX=0.925;entryY=0.595;entryDx=0;entryDy=0;entryPerimeter=0;" parent="WIyWlLk6GJQsqaUBKTNV-1" source="2dFmBHsL3zyiolPfMNF0-46" target="2dFmBHsL3zyiolPfMNF0-21" edge="1">
          <mxGeometry relative="1" as="geometry">
            <mxPoint x="150" y="370" as="targetPoint" />
            <Array as="points">
              <mxPoint x="150" y="785" />
              <mxPoint x="150" y="368" />
            </Array>
          </mxGeometry>
        </mxCell>
        <mxCell id="2dFmBHsL3zyiolPfMNF0-50" value="salah" style="edgeLabel;html=1;align=center;verticalAlign=middle;resizable=0;points=[];" parent="2dFmBHsL3zyiolPfMNF0-48" vertex="1" connectable="0">
          <mxGeometry x="-0.8768" y="-2" relative="1" as="geometry">
            <mxPoint as="offset" />
          </mxGeometry>
        </mxCell>
        <mxCell id="2dFmBHsL3zyiolPfMNF0-51" style="edgeStyle=orthogonalEdgeStyle;rounded=0;orthogonalLoop=1;jettySize=auto;html=1;exitX=0;exitY=0.5;exitDx=0;exitDy=0;" parent="WIyWlLk6GJQsqaUBKTNV-1" source="2dFmBHsL3zyiolPfMNF0-46" target="2dFmBHsL3zyiolPfMNF0-55" edge="1">
          <mxGeometry relative="1" as="geometry">
            <mxPoint x="-210" y="1030" as="targetPoint" />
            <Array as="points">
              <mxPoint x="-210" y="785" />
            </Array>
          </mxGeometry>
        </mxCell>
        <mxCell id="2dFmBHsL3zyiolPfMNF0-52" value="benar" style="edgeLabel;html=1;align=center;verticalAlign=middle;resizable=0;points=[];" parent="2dFmBHsL3zyiolPfMNF0-51" vertex="1" connectable="0">
          <mxGeometry x="-0.7954" y="2" relative="1" as="geometry">
            <mxPoint as="offset" />
          </mxGeometry>
        </mxCell>
        <mxCell id="2dFmBHsL3zyiolPfMNF0-46" value="username =&amp;nbsp; buat_&lt;span style=&quot;background-color: initial;&quot;&gt;username&lt;/span&gt;&lt;div&gt;&amp;amp;&lt;/div&gt;&lt;div&gt;password = buat_password&lt;br&gt;&lt;div&gt;&lt;br&gt;&lt;/div&gt;&lt;/div&gt;" style="rhombus;whiteSpace=wrap;html=1;" parent="WIyWlLk6GJQsqaUBKTNV-1" vertex="1">
          <mxGeometry x="-155" y="710" width="230" height="150" as="geometry" />
        </mxCell>
        <mxCell id="2dFmBHsL3zyiolPfMNF0-63" style="edgeStyle=orthogonalEdgeStyle;rounded=0;orthogonalLoop=1;jettySize=auto;html=1;" parent="WIyWlLk6GJQsqaUBKTNV-1" source="2dFmBHsL3zyiolPfMNF0-55" target="2dFmBHsL3zyiolPfMNF0-60" edge="1">
          <mxGeometry relative="1" as="geometry" />
        </mxCell>
        <mxCell id="2dFmBHsL3zyiolPfMNF0-65" style="edgeStyle=orthogonalEdgeStyle;rounded=0;orthogonalLoop=1;jettySize=auto;html=1;" parent="WIyWlLk6GJQsqaUBKTNV-1" source="2dFmBHsL3zyiolPfMNF0-55" target="2dFmBHsL3zyiolPfMNF0-61" edge="1">
          <mxGeometry relative="1" as="geometry" />
        </mxCell>
        <mxCell id="2dFmBHsL3zyiolPfMNF0-72" style="edgeStyle=orthogonalEdgeStyle;rounded=0;orthogonalLoop=1;jettySize=auto;html=1;" parent="WIyWlLk6GJQsqaUBKTNV-1" source="2dFmBHsL3zyiolPfMNF0-55" target="2dFmBHsL3zyiolPfMNF0-56" edge="1">
          <mxGeometry relative="1" as="geometry">
            <Array as="points">
              <mxPoint x="-313" y="1060" />
            </Array>
          </mxGeometry>
        </mxCell>
        <mxCell id="2dFmBHsL3zyiolPfMNF0-55" value="pilih opsi" style="rounded=1;whiteSpace=wrap;html=1;" parent="WIyWlLk6GJQsqaUBKTNV-1" vertex="1">
          <mxGeometry x="-270" y="1030" width="120" height="60" as="geometry" />
        </mxCell>
        <mxCell id="2dFmBHsL3zyiolPfMNF0-64" style="edgeStyle=orthogonalEdgeStyle;rounded=0;orthogonalLoop=1;jettySize=auto;html=1;entryX=1;entryY=0.5;entryDx=0;entryDy=0;" parent="WIyWlLk6GJQsqaUBKTNV-1" source="2dFmBHsL3zyiolPfMNF0-60" target="2dFmBHsL3zyiolPfMNF0-11" edge="1">
          <mxGeometry relative="1" as="geometry">
            <Array as="points">
              <mxPoint x="700" y="1200" />
              <mxPoint x="700" y="220" />
            </Array>
          </mxGeometry>
        </mxCell>
        <mxCell id="2dFmBHsL3zyiolPfMNF0-68" style="edgeStyle=orthogonalEdgeStyle;rounded=0;orthogonalLoop=1;jettySize=auto;html=1;entryX=0.474;entryY=0.098;entryDx=0;entryDy=0;entryPerimeter=0;" parent="WIyWlLk6GJQsqaUBKTNV-1" edge="1">
          <mxGeometry relative="1" as="geometry">
            <mxPoint x="-208.94142857142853" y="1090" as="sourcePoint" />
            <mxPoint x="-211.04999999999993" y="1197.84" as="targetPoint" />
            <Array as="points">
              <mxPoint x="-209" y="1091" />
              <mxPoint x="-211" y="1091" />
              <mxPoint x="-211" y="1144" />
              <mxPoint x="-210" y="1144" />
              <mxPoint x="-210" y="1198" />
            </Array>
          </mxGeometry>
        </mxCell>
        <mxCell id="2dFmBHsL3zyiolPfMNF0-70" style="edgeStyle=orthogonalEdgeStyle;rounded=0;orthogonalLoop=1;jettySize=auto;html=1;entryX=0.522;entryY=0.058;entryDx=0;entryDy=0;entryPerimeter=0;" parent="WIyWlLk6GJQsqaUBKTNV-1" source="2dFmBHsL3zyiolPfMNF0-55" target="2dFmBHsL3zyiolPfMNF0-57" edge="1">
          <mxGeometry relative="1" as="geometry">
            <Array as="points">
              <mxPoint x="-425" y="1060" />
              <mxPoint x="-425" y="1160" />
              <mxPoint x="-423" y="1160" />
            </Array>
          </mxGeometry>
        </mxCell>
        <mxCell id="2dFmBHsL3zyiolPfMNF0-74" style="edgeStyle=orthogonalEdgeStyle;rounded=0;orthogonalLoop=1;jettySize=auto;html=1;" parent="WIyWlLk6GJQsqaUBKTNV-1" source="2dFmBHsL3zyiolPfMNF0-56" target="2dFmBHsL3zyiolPfMNF0-59" edge="1">
          <mxGeometry relative="1" as="geometry" />
        </mxCell>
        <mxCell id="2dFmBHsL3zyiolPfMNF0-56" value="deleted&amp;nbsp;&lt;div&gt;character&lt;/div&gt;" style="rhombus;whiteSpace=wrap;html=1;" parent="WIyWlLk6GJQsqaUBKTNV-1" vertex="1">
          <mxGeometry x="-360" y="1160" width="95" height="80" as="geometry" />
        </mxCell>
        <mxCell id="2dFmBHsL3zyiolPfMNF0-73" style="edgeStyle=orthogonalEdgeStyle;rounded=0;orthogonalLoop=1;jettySize=auto;html=1;" parent="WIyWlLk6GJQsqaUBKTNV-1" source="2dFmBHsL3zyiolPfMNF0-57" target="2dFmBHsL3zyiolPfMNF0-56" edge="1">
          <mxGeometry relative="1" as="geometry" />
        </mxCell>
        <mxCell id="2dFmBHsL3zyiolPfMNF0-57" value="create character" style="rhombus;whiteSpace=wrap;html=1;" parent="WIyWlLk6GJQsqaUBKTNV-1" vertex="1">
          <mxGeometry x="-465" y="1160" width="80" height="80" as="geometry" />
        </mxCell>
        <mxCell id="2dFmBHsL3zyiolPfMNF0-75" style="edgeStyle=orthogonalEdgeStyle;rounded=0;orthogonalLoop=1;jettySize=auto;html=1;" parent="WIyWlLk6GJQsqaUBKTNV-1" source="2dFmBHsL3zyiolPfMNF0-59" target="2dFmBHsL3zyiolPfMNF0-61" edge="1">
          <mxGeometry relative="1" as="geometry" />
        </mxCell>
        <mxCell id="2dFmBHsL3zyiolPfMNF0-59" value="apdate character" style="rhombus;whiteSpace=wrap;html=1;" parent="WIyWlLk6GJQsqaUBKTNV-1" vertex="1">
          <mxGeometry x="-235" y="1160" width="80" height="80" as="geometry" />
        </mxCell>
        <mxCell id="2dFmBHsL3zyiolPfMNF0-60" value="log out" style="rhombus;whiteSpace=wrap;html=1;" parent="WIyWlLk6GJQsqaUBKTNV-1" vertex="1">
          <mxGeometry x="-35" y="1160" width="80" height="80" as="geometry" />
        </mxCell>
        <mxCell id="2dFmBHsL3zyiolPfMNF0-76" style="edgeStyle=orthogonalEdgeStyle;rounded=0;orthogonalLoop=1;jettySize=auto;html=1;" parent="WIyWlLk6GJQsqaUBKTNV-1" source="2dFmBHsL3zyiolPfMNF0-61" target="2dFmBHsL3zyiolPfMNF0-60" edge="1">
          <mxGeometry relative="1" as="geometry" />
        </mxCell>
        <mxCell id="2dFmBHsL3zyiolPfMNF0-61" value="read character" style="rhombus;whiteSpace=wrap;html=1;" parent="WIyWlLk6GJQsqaUBKTNV-1" vertex="1">
          <mxGeometry x="-140" y="1160" width="80" height="80" as="geometry" />
        </mxCell>
        <mxCell id="0f-csfqNkN378bsTzkLp-0" value="" style="endArrow=classic;html=1;rounded=0;entryX=0.171;entryY=-0.048;entryDx=0;entryDy=0;entryPerimeter=0;" edge="1" parent="WIyWlLk6GJQsqaUBKTNV-1" target="2dFmBHsL3zyiolPfMNF0-42">
          <mxGeometry width="50" height="50" relative="1" as="geometry">
            <mxPoint x="-140" y="487" as="sourcePoint" />
            <mxPoint x="90" y="400" as="targetPoint" />
          </mxGeometry>
        </mxCell>
      </root>
    </mxGraphModel>
  </diagram>
</mxfile>
